HIERARCHY
ROOT Hips
{
	OFFSET 0.000000 0.000000 0.000000
	CHANNELS 6 Xposition Yposition Zposition Zrotation Yrotation Xrotation 
	JOINT LHipJoint
	{
		OFFSET 0.000000 0.000000 0.000000
		CHANNELS 3 Zrotation Yrotation Xrotation
		JOINT LeftUpLeg
		{
			OFFSET 1.363060 -1.794630 0.839290
			CHANNELS 3 Zrotation Yrotation Xrotation
			JOINT LeftLeg
			{
				OFFSET 2.448110 -6.726130 0.000000
				CHANNELS 3 Zrotation Yrotation Xrotation
				JOINT LeftFoot
				{
					OFFSET 2.562200 -7.039590 0.000000
					CHANNELS 3 Zrotation Yrotation Xrotation
					JOINT LeftToeBase
					{
						OFFSET 0.157640 -0.433110 2.322550
						CHANNELS 3 Zrotation Yrotation Xrotation
						End Site
						{
							OFFSET 0.000000 0.000000 0.000000
						}
					}
				}
			}
		}
	}
	JOINT RHipJoint
	{
		OFFSET 0.000000 0.000000 0.000000
		CHANNELS 3 Zrotation Yrotation Xrotation
		JOINT RightUpLeg
		{
			OFFSET -1.305520 -1.794630 0.839290
			CHANNELS 3 Zrotation Yrotation Xrotation
			JOINT RightLeg
			{
				OFFSET -2.542530 -6.985550 0.000000
				CHANNELS 3 Zrotation Yrotation Xrotation
				JOINT RightFoot
				{
					OFFSET -2.568260 -7.056230 0.000000
					CHANNELS 3 Zrotation Yrotation Xrotation
					JOINT RightToeBase
					{
						OFFSET -0.164730 -0.452590 2.363150
						CHANNELS 3 Zrotation Yrotation Xrotation
						End Site
						{
							OFFSET 0.000000 0.000000 0.000000
						}
					}
				}
			}
		}
	}
	JOINT LowerBack
	{
		OFFSET 0.000000 0.000000 0.000000
		CHANNELS 3 Zrotation Yrotation Xrotation
		JOINT Spine
		{
			OFFSET 0.028270 2.035590 -0.193380
			CHANNELS 3 Zrotation Yrotation Xrotation
			JOINT Spine1
			{
				OFFSET 0.056720 2.048850 -0.042750
				CHANNELS 3 Zrotation Yrotation Xrotation
				JOINT Neck
				{
					OFFSET 0.000000 0.000000 0.000000
					CHANNELS 3 Zrotation Yrotation Xrotation
					JOINT Neck1
					{
						OFFSET -0.054170 1.746240 0.172020
						CHANNELS 3 Zrotation Yrotation Xrotation
						JOINT Head
						{
							OFFSET 0.104070 1.761360 -0.123970
							CHANNELS 3 Zrotation Yrotation Xrotation
							End Site
							{
								OFFSET 0.000000 0.000000 0.000000
							}
						}
					}
				}
				JOINT LeftShoulder
				{
					OFFSET 0.000000 0.000000 0.000000
					CHANNELS 3 Zrotation Yrotation Xrotation
					JOINT LeftArm
					{
						OFFSET 3.362410 1.200890 -0.311210
						CHANNELS 3 Zrotation Yrotation Xrotation
						JOINT LeftForeArm
						{
							OFFSET 4.983000 -0.000000 -0.000000
							CHANNELS 3 Zrotation Yrotation Xrotation
							JOINT LeftHand
							{
								OFFSET 3.483560 -0.000000 -0.000000
								CHANNELS 3 Zrotation Yrotation Xrotation
								JOINT LeftFingerBase
								{
									OFFSET 0.000000 0.000000 0.000000
									CHANNELS 3 Zrotation Yrotation Xrotation
									JOINT LeftHandIndex1
									{
										OFFSET 0.715260 -0.000000 -0.000000
										CHANNELS 3 Zrotation Yrotation Xrotation
										End Site
										{
											OFFSET 0.000000 0.000000 0.000000
										}
									}
								}
								JOINT LThumb
								{
									OFFSET 0.000000 0.000000 0.000000
									CHANNELS 3 Zrotation Yrotation Xrotation
									End Site
									{
										OFFSET 0.000000 0.000000 0.000000
									}
								}
							}
						}
					}
				}
				JOINT RightShoulder
				{
					OFFSET 0.000000 0.000000 0.000000
					CHANNELS 3 Zrotation Yrotation Xrotation
					JOINT RightArm
					{
						OFFSET -3.136600 1.374050 -0.404650
						CHANNELS 3 Zrotation Yrotation Xrotation
						JOINT RightForeArm
						{
							OFFSET -5.241900 -0.000000 -0.000000
							CHANNELS 3 Zrotation Yrotation Xrotation
							JOINT RightHand
							{
								OFFSET -3.444170 -0.000000 -0.000000
								CHANNELS 3 Zrotation Yrotation Xrotation
								JOINT RightFingerBase
								{
									OFFSET 0.000000 0.000000 0.000000
									CHANNELS 3 Zrotation Yrotation Xrotation
									JOINT RightHandIndex1
									{
										OFFSET -0.622530 -0.000000 -0.000000
										CHANNELS 3 Zrotation Yrotation Xrotation
										End Site
										{
											OFFSET 0.000000 0.000000 0.000000
										}
									}
								}
								JOINT RThumb
								{
									OFFSET 0.000000 0.000000 0.000000
									CHANNELS 3 Zrotation Yrotation Xrotation
									End Site
									{
										OFFSET 0.000000 0.000000 0.000000
									}
								}
							}
						}
					}
				}
			}
		}
	}
}
MOTION
Frames: 6
Frame Time: 0.033333
-0.201188 16.698156 -0.201188 -4.287284 -2.775842 3.568477 -1.366780 16.588320 2.063586 -15.113638 -4.521262 -12.058107 -7.960215 -10.793219 -30.220762 3.475138 18.391293 43.135882 0.000000 0.000000 0.000000 -2.226094 -21.541238 -18.457017 43.326344 3.733686 4.325645 -14.227027 -1.589129 30.701581 -0.910376 12.873126 -29.112024 0.000000 0.000000 0.000000 -0.439156 1.163312 21.583595 1.140350 1.392736 -2.403784 0.623359 2.358609 -6.025911 -2.603563 0.444391 0.018006 4.794141 -0.353704 7.423720 0.000000 0.000000 0.000000 9.516884 14.320347 6.470451 -70.930732 -7.448429 23.298960 -14.533870 -82.133764 0.334228 3.307519 -17.255006 0.154310 3.420513 -17.240554 0.000000 0.000000 0.000000 0.000000 0.000000 0.000000 0.000000 -6.055974 -15.375853 4.612029 69.650665 6.138199 23.235680 21.567458 77.676169 0.573192 0.267037 15.164250 0.282879 0.254364 15.171793 0.000000 0.000000 0.000000 0.000000 0.000000 0.000000 0.000000 
-0.177016 16.738763 -0.028449 -4.153639 -3.017328 4.278105 -1.076584 16.705678 1.613926 -15.877806 -4.505134 -11.963219 -7.848252 -10.412923 -29.214071 2.920642 17.414994 40.794264 0.000000 0.000000 0.000000 -2.113295 -21.960406 -17.389327 42.834920 4.940409 3.100534 -13.652403 -1.598284 31.532658 -1.076319 13.239981 -29.587166 0.000000 0.000000 0.000000 -0.631847 1.361970 21.604041 0.890353 1.463266 -2.220936 0.545541 2.482887 -6.388592 -2.975930 0.463241 0.644554 4.817378 -0.404706 7.928577 0.000000 0.000000 0.000000 10.168907 14.895975 6.104834 -71.038768 -8.133759 23.473204 -13.457521 -83.067142 0.288312 3.723246 -17.620341 0.129609 3.853516 -17.600807 0.000000 0.000000 0.000000 0.000000 0.000000 0.000000 0.000000 -6.390187 -15.906537 3.977635 70.015957 6.085977 24.168346 21.287441 79.221123 0.624446 0.320697 15.876851 0.307969 0.308179 15.885299 0.000000 0.000000 0.000000 0.000000 0.000000 0.000000 0.000000 
-0.150634 16.781189 0.143738 -4.025103 -3.213374 4.993713 -0.807740 16.810868 1.146854 -16.623652 -4.523826 -11.907196 -7.740008 -10.004315 -28.093908 2.408659 16.397660 38.379996 0.000000 0.000000 0.000000 -1.970933 -22.313162 -16.310145 42.237294 6.144049 1.807737 -13.052211 -1.643916 32.326734 -1.222812 13.564660 -30.006589 0.000000 0.000000 0.000000 -0.844811 1.550119 21.612420 0.691305 1.521309 -2.085307 0.485151 2.597900 -6.717873 -3.274626 0.463452 1.216131 4.814197 -0.446228 8.339869 0.000000 0.000000 0.000000 10.795933 15.446488 5.774390 -71.177288 -8.846871 23.565273 -12.406598 -83.956120 0.237208 4.137497 -17.947176 0.102243 4.285770 -17.922034 0.000000 0.000000 0.000000 0.000000 0.000000 0.000000 0.000000 -6.753208 -16.409251 3.361544 70.363958 6.029850 25.041268 20.944681 80.764756 0.674341 0.358425 16.575834 0.332314 0.345795 16.585173 0.000000 0.000000 0.000000 0.000000 0.000000 0.000000 0.000000 
-0.122096 16.824986 0.314975 -3.902380 -3.359887 5.714184 -0.564469 16.904914 0.664458 -17.344878 -4.578464 -11.895394 -7.638739 -9.567189 -26.864594 1.942616 15.349741 35.914656 0.000000 0.000000 0.000000 -1.799983 -22.605041 -15.226714 41.535781 7.331376 0.453640 -12.427210 -1.725061 33.073826 -1.350332 13.850106 -30.373217 0.000000 0.000000 0.000000 -1.076036 1.730443 21.618078 0.540315 1.564992 -1.991008 0.448637 2.702283 -7.032046 -3.493417 0.422784 1.709770 4.804758 -0.481300 8.673188 0.000000 0.000000 0.000000 11.399111 15.979116 5.486213 -71.345871 -9.590694 23.588045 -11.388771 -84.804762 0.181766 4.546549 -18.234996 0.072673 4.713235 -18.203799 0.000000 0.000000 0.000000 0.000000 0.000000 0.000000 0.000000 -7.146615 -16.894367 2.764994 70.692445 5.970209 25.850492 20.546166 82.302635 0.722567 0.379932 17.258070 0.355764 0.366889 17.268273 0.000000 0.000000 0.000000 0.000000 0.000000 0.000000 0.000000 
-0.091971 16.869748 0.484902 -3.794974 -3.445921 6.451650 -0.345732 16.983602 0.159309 -18.034779 -4.671871 -11.936308 -7.541681 -9.102857 -25.532701 1.523346 14.280848 33.422583 0.000000 0.000000 0.000000 -1.595354 -22.841713 -14.151286 40.737423 8.490440 -0.962335 -11.770680 -1.844331 33.765052 -1.458524 14.097154 -30.690576 0.000000 0.000000 0.000000 -1.345217 1.911614 21.660315 0.457101 1.596324 -1.956529 0.470314 2.791540 -7.395275 -3.577757 0.274895 2.037687 4.817051 -0.515177 8.921072 0.000000 0.000000 0.000000 11.975695 16.522314 5.259229 -71.558554 -10.354084 23.582873 -10.414359 -85.622421 0.124453 4.944340 -18.485214 0.042215 5.129175 -18.447693 0.000000 0.000000 0.000000 0.000000 0.000000 0.000000 0.000000 -7.589431 -17.385660 2.199178 70.979084 5.892590 26.600948 20.099854 83.838496 0.769424 0.385749 17.921594 0.378489 0.372112 17.932619 0.000000 0.000000 0.000000 0.000000 0.000000 0.000000 0.000000 
-0.071199 16.906765 0.642113 -3.549008 -3.612882 6.586397 -0.136360 17.120927 0.038583 -18.664091 -4.669409 -11.680867 -7.396024 -8.744382 -24.423604 1.218450 13.319764 31.220600 0.000000 0.000000 0.000000 -1.675672 -22.627232 -13.239234 39.722809 8.956480 -1.668998 -10.907480 -2.072798 33.956823 -1.507831 14.337273 -31.118360 0.000000 0.000000 0.000000 -1.241361 1.779470 20.828682 0.408794 1.528678 -1.875959 0.359956 2.643216 -6.961402 -3.516332 0.377223 1.702720 4.767374 -0.495180 8.774019 0.000000 0.000000 0.000000 11.714029 15.963656 5.439572 -71.400453 -10.120784 22.851192 -9.914629 -85.614722 0.099627 5.132402 -18.411386 0.029592 5.320990 -18.371246 0.000000 0.000000 0.000000 0.000000 0.000000 0.000000 0.000000 -7.532167 -16.800436 2.552063 71.090804 6.025568 26.049920 20.018490 83.354087 0.754253 0.296712 17.742293 0.370986 0.281561 17.752897 0.000000 0.000000 0.000000 0.000000 0.000000 0.000000 0.000000 
